<svg width="26" height="25" viewBox="0 0 26 25" fill="none" xmlns="http://www.w3.org/2000/svg">
<path d="M25.4477 0.554866L25.403 0.0974854L24.9457 0.0528629C20.634 -0.359895 15.6363 1.65927 11.2466 5.59163C10.633 6.14383 10.0417 6.72393 9.47281 7.32633L3.90615 7.13668L2.63999 9.72479L3.644 10.2156L4.59222 8.28014L8.50227 8.414C6.80104 10.4164 5.37312 12.6476 4.29102 14.9735L2.29417 12.9767L3.13084 11.2754L2.12683 10.7846L0.944336 13.1998L3.81133 16.0668C3.22566 17.4779 2.77386 18.917 2.4615 20.3617L2.40015 20.6573L4.84323 23.1004L5.13885 23.039C6.5835 22.7267 8.02258 22.2693 9.43377 21.6892L12.3008 24.5562L14.716 23.3737L14.2251 22.3697L12.5239 23.2008L10.527 21.2039C12.853 20.1218 15.0785 18.6939 17.0865 16.9927L17.2204 20.9027L15.2849 21.851L15.7757 22.855L18.3638 21.5888L18.1742 16.0221C18.7766 15.4588 19.3567 14.8675 19.9089 14.2484C23.8413 9.86423 25.8604 4.87209 25.4477 0.554866ZM5.20021 21.8788L3.61611 20.2947C3.75555 19.6812 3.92847 19.062 4.12369 18.4541L7.04088 21.3713C6.4329 21.5721 5.81377 21.7394 5.20021 21.8788ZM19.0778 13.5065C16.0881 16.8477 12.2506 19.4581 8.21223 20.9697L6.76199 19.5194L9.72939 16.552L8.94292 15.7656L5.97552 18.733L4.52529 17.2827C6.03688 13.25 8.64729 9.41243 11.9884 6.42273C14.2028 4.43702 16.5622 2.97006 18.8937 2.08319L20.7567 3.94618L17.7559 6.94704C17.265 6.61237 16.6905 6.43388 16.0825 6.43388C15.2849 6.43388 14.5375 6.74624 13.9797 7.30402C13.4163 7.86738 13.1095 8.61481 13.1095 9.40685C13.1095 10.0148 13.288 10.5894 13.6227 11.0802L11.3079 13.395L12.0944 14.1815L14.4092 11.8667C14.9 12.2013 15.4745 12.3798 16.0825 12.3798C16.8801 12.3798 17.6276 12.0675 18.1854 11.5097C18.7487 10.9463 19.0555 10.1989 19.0555 9.40685C19.0555 8.79887 18.877 8.22436 18.5423 7.73351L21.5432 4.73265L23.4062 6.59564C22.5305 8.93274 21.0635 11.2922 19.0778 13.5065ZM17.9511 9.41243C17.9511 9.90886 17.7559 10.3774 17.4045 10.7288C17.0531 11.0802 16.5845 11.2754 16.0881 11.2754C15.5917 11.2754 15.1231 11.0802 14.7717 10.7288C14.4203 10.3774 14.2251 9.90886 14.2251 9.41243C14.2251 8.91601 14.4203 8.44747 14.7717 8.09607C15.1231 7.74467 15.5917 7.54944 16.0881 7.54944C16.5845 7.54944 17.0531 7.74467 17.4045 8.09607C17.7559 8.44747 17.9511 8.91601 17.9511 9.41243ZM23.8134 5.4243L20.0762 1.68716C21.5488 1.25209 22.9934 1.05687 24.3711 1.12938C24.4437 2.50152 24.2484 3.95175 23.8134 5.4243Z" fill="#570A2A"/>
</svg>
