<svg width="34" height="34" viewBox="0 0 34 34" fill="none" xmlns="http://www.w3.org/2000/svg">
<path d="M32.8711 16.8727H30.8789V12.8939C30.8789 11.7471 30.2944 10.7343 29.4077 10.1376L19.4647 0.194504C19.2054 -0.0647461 18.7848 -0.0647461 18.5256 0.194504L16.5028 2.21724L14.48 0.194504C14.3555 0.0699922 14.1866 0 14.0105 0C13.8343 0 13.6654 0.0699922 13.5409 0.194504L4.16175 9.57359H3.78516C1.95434 9.57359 0.464844 11.0631 0.464844 12.8939V18.7985C0.464844 19.1652 0.762145 19.4625 1.12891 19.4625C1.49567 19.4625 1.79297 19.1652 1.79297 18.7985V12.8939C1.79297 11.7954 2.68666 10.9017 3.78516 10.9017H27.5586C28.6571 10.9017 29.5508 11.7954 29.5508 12.8939V16.8727H19.457C16.7474 16.8727 14.543 19.0771 14.543 21.7868C14.543 24.4964 16.7474 26.7008 19.457 26.7008H29.5508V30.6797C29.5508 31.7782 28.6571 32.6719 27.5586 32.6719H3.78516C2.68666 32.6719 1.79297 31.7782 1.79297 30.6797V24.775C1.79297 24.4083 1.49567 24.111 1.12891 24.111C0.762145 24.111 0.464844 24.4083 0.464844 24.775V30.6797C0.464844 32.5105 1.95434 34 3.78516 34H27.5586C29.3894 34 30.8789 32.5105 30.8789 30.6797V26.7008H32.8711C33.2379 26.7008 33.5352 26.4035 33.5352 26.0368V17.5368C33.5352 17.17 33.2379 16.8727 32.8711 16.8727ZM6.04005 9.57359L14.0105 1.60325L15.5636 3.15642L9.14633 9.57366H6.04005V9.57359ZM11.0247 9.57359L18.995 1.60325L26.9655 9.57359H11.0247ZM32.207 25.3727H19.457C17.4797 25.3727 15.8711 23.764 15.8711 21.7868C15.8711 19.8095 17.4797 18.2008 19.457 18.2008H32.207V25.3727Z" fill="#590C3A"/>
<path d="M19.457 19.7946C18.3585 19.7946 17.4648 20.6883 17.4648 21.7868C17.4648 22.8853 18.3585 23.7789 19.457 23.7789C20.5555 23.7789 21.4492 22.8853 21.4492 21.7868C21.4492 20.6883 20.5555 19.7946 19.457 19.7946ZM19.457 22.4508C19.0909 22.4508 18.793 22.1529 18.793 21.7868C18.793 21.4206 19.0909 21.1227 19.457 21.1227C19.8232 21.1227 20.1211 21.4206 20.1211 21.7868C20.1211 22.1529 19.8232 22.4508 19.457 22.4508Z" fill="#590C3A"/>
<path d="M1.12891 22.4506C1.30355 22.4506 1.47488 22.3802 1.5984 22.256C1.72191 22.1325 1.79297 21.9612 1.79297 21.7866C1.79297 21.6119 1.72191 21.4406 1.5984 21.3171C1.47488 21.1936 1.30355 21.1225 1.12891 21.1225C0.954258 21.1225 0.78293 21.1935 0.659414 21.3171C0.535898 21.4406 0.464844 21.6119 0.464844 21.7866C0.464844 21.9612 0.535898 22.1325 0.659414 22.256C0.78293 22.3802 0.954258 22.4506 1.12891 22.4506Z" fill="#590C3A"/>
</svg>
