<svg width="101" height="100" viewBox="0 0 101 100" fill="none" xmlns="http://www.w3.org/2000/svg">
<path d="M13.9568 57.1806C13.8207 57.3166 13.7127 57.4782 13.6391 57.656C13.5654 57.8339 13.5275 58.0245 13.5275 58.2169C13.5275 58.4094 13.5654 58.6 13.6391 58.7779C13.7127 58.9557 13.8207 59.1173 13.9568 59.2533L41.2498 86.5527C41.3849 86.6927 41.5465 86.8044 41.7251 86.8813C41.9038 86.9581 42.096 86.9986 42.2905 87.0004C42.485 87.0022 42.6779 86.9652 42.858 86.8916C43.038 86.8181 43.2016 86.7093 43.3392 86.5718C43.4768 86.4343 43.5857 86.2708 43.6594 86.0908C43.7332 85.9107 43.7703 85.7178 43.7687 85.5233C43.7671 85.3287 43.7268 85.1364 43.6501 84.9576C43.5734 84.7788 43.4619 84.6171 43.3221 84.4819L16.0291 57.1806C15.7539 56.9066 15.3813 56.7527 14.993 56.7527C14.6046 56.7527 14.2321 56.9066 13.9568 57.1806ZM47.2283 82.6455C47.3644 82.5095 47.4724 82.3479 47.5461 82.1701C47.6198 81.9922 47.6577 81.8016 47.6577 81.6091C47.6577 81.4167 47.6198 81.2261 47.5461 81.0482C47.4724 80.8704 47.3644 80.7088 47.2283 80.5728L19.9354 53.2734C19.6606 52.9985 19.2878 52.8441 18.8992 52.8441C18.5106 52.8441 18.1379 52.9985 17.8631 53.2734C17.5883 53.5483 17.4339 53.9211 17.4339 54.3098C17.4339 54.6985 17.5883 55.0713 17.8631 55.3462L45.158 82.6455C45.2939 82.7816 45.4552 82.8896 45.6329 82.9633C45.8105 83.0369 46.0009 83.0748 46.1932 83.0748C46.3854 83.0748 46.5758 83.0369 46.7535 82.9633C46.9311 82.8896 47.0925 82.7816 47.2283 82.6455ZM77.9041 38.0765C78.0402 37.9404 78.1482 37.7789 78.2219 37.601C78.2956 37.4232 78.3335 37.2326 78.3335 37.0401C78.3335 36.8476 78.2956 36.657 78.2219 36.4792C78.1482 36.3014 78.0402 36.1398 77.9041 36.0037L75.99 34.0873C75.7152 33.8124 75.3425 33.658 74.9539 33.658C74.5653 33.658 74.1926 33.8124 73.9178 34.0873C73.643 34.3621 73.4886 34.7349 73.4886 35.1236C73.4886 35.5124 73.643 35.8852 73.9178 36.16L75.8338 38.0765C75.9697 38.2126 76.131 38.3205 76.3086 38.3942C76.4863 38.4679 76.6767 38.5058 76.8689 38.5058C77.0612 38.5058 77.2516 38.4679 77.4293 38.3942C77.6069 38.3205 77.7682 38.2126 77.9041 38.0765ZM83.6522 43.8239C83.7882 43.688 83.8962 43.5266 83.9698 43.349C84.0435 43.1713 84.0814 42.9809 84.0814 42.7885C84.0814 42.5962 84.0435 42.4058 83.9698 42.2281C83.8962 42.0504 83.7882 41.889 83.6522 41.7531L81.7361 39.8367C81.4585 39.5779 81.0912 39.437 80.7117 39.4437C80.3322 39.4504 79.9701 39.6041 79.7017 39.8726C79.4333 40.141 79.2796 40.5032 79.2729 40.8828C79.2662 41.2624 79.4071 41.6297 79.6658 41.9075L81.5818 43.8239C81.7177 43.96 81.8791 44.068 82.0567 44.1417C82.2343 44.2153 82.4247 44.2532 82.617 44.2532C82.8093 44.2532 82.9997 44.2153 83.1773 44.1417C83.3549 44.068 83.5163 43.96 83.6522 43.8239ZM99.2635 31.9676L91.5252 24.2236C90.8671 23.558 90.0053 23.1317 89.077 23.0124C88.1487 22.8931 87.2071 23.0877 86.4022 23.5653C85.0813 24.3525 83.5356 24.6766 82.0099 24.4863C80.4841 24.296 79.0654 23.6021 77.9783 22.5145C76.8911 21.4269 76.1977 20.0077 76.0078 18.4816C75.8178 16.9554 76.1422 15.4095 76.9295 14.0884C77.4062 13.2833 77.6002 12.3418 77.4806 11.4137C77.361 10.4856 76.9346 9.62408 76.2693 8.96615L68.5311 1.22605C67.7344 0.440427 66.6606 0 65.5418 0C64.423 0 63.3492 0.440427 62.5525 1.22605L1.73614 62.0567C0.944551 62.8503 0.5 63.9256 0.5 65.0467C0.5 66.1677 0.944551 67.243 1.73614 68.0366L9.48418 75.7767C10.1421 76.4426 11.0037 76.8694 11.9321 76.989C12.8604 77.1087 13.802 76.9144 14.6072 76.437C15.9278 75.6485 17.4737 75.3233 19 75.513C20.5262 75.7027 21.9455 76.3963 23.0331 77.4841C24.1206 78.5719 24.8141 79.9916 25.0037 81.5182C25.1933 83.0448 24.8682 84.591 24.0799 85.9119C23.6018 86.7164 23.4061 87.6575 23.5239 88.5859C23.6418 89.5143 24.0664 90.3767 24.7303 91.0362L32.4686 98.7782C33.2667 99.561 34.34 99.9995 35.4578 99.9995C36.5757 99.9995 37.6489 99.561 38.4471 98.7782L66.8787 70.3399C67.1457 70.0637 67.2935 69.6937 67.2904 69.3095C67.2872 68.9253 67.1333 68.5578 66.8618 68.286C66.5904 68.0142 66.223 67.8599 65.839 67.8564C65.4549 67.8529 65.0848 68.0004 64.8084 68.2672L36.3768 96.7016C36.1315 96.9416 35.802 97.0761 35.4588 97.0761C35.1156 97.0761 34.7861 96.9416 34.5408 96.7016L26.8025 88.9595C26.5989 88.7629 26.4669 88.5037 26.4276 88.2233C26.3883 87.9428 26.444 87.6573 26.5857 87.4123C27.7056 85.5309 28.1662 83.3298 27.8948 81.1571C27.6234 78.9845 26.6354 76.9644 25.0872 75.4165C23.539 73.8686 21.5189 72.8813 19.3467 72.6107C17.1744 72.3402 14.974 72.8019 13.0936 73.9228C12.8484 74.0643 12.5631 74.1198 12.2828 74.0805C12.0026 74.0412 11.7435 73.9094 11.5467 73.7059L3.8084 65.9639C3.56711 65.7196 3.43179 65.3901 3.43179 65.0467C3.43179 64.7033 3.56711 64.3737 3.8084 64.1295L52.8436 15.0809C53.1184 15.3557 53.4911 15.5101 53.8797 15.5101C54.2683 15.5101 54.641 15.3557 54.9158 15.0809C55.1906 14.806 55.345 14.4332 55.345 14.0445C55.345 13.6558 55.1906 13.283 54.9158 13.0081L64.6229 3.2988C64.8674 3.05733 65.1972 2.92194 65.5408 2.92194C65.8845 2.92194 66.2142 3.05733 66.4588 3.2988L74.1971 11.0389C74.4007 11.2355 74.5328 11.4947 74.5721 11.7751C74.6113 12.0556 74.5557 12.3411 74.4139 12.5861C73.2913 14.4675 72.8284 16.6698 73.0986 18.8441C73.3688 21.0183 74.3566 23.0402 75.9055 24.5895C77.4544 26.1388 79.4759 27.1268 81.6496 27.397C83.8233 27.6673 86.0251 27.2043 87.9061 26.0815C88.1513 25.9403 88.4365 25.885 88.7167 25.9243C88.9969 25.9636 89.256 26.0952 89.4529 26.2983L97.1912 34.0404C97.432 34.2849 97.567 34.6144 97.567 34.9576C97.567 35.3008 97.432 35.6303 97.1912 35.8748L87.4842 45.5861C87.2083 45.3112 86.8346 45.1572 86.4453 45.1579C86.0559 45.1587 85.6828 45.3141 85.408 45.59C85.1332 45.8659 84.9792 46.2397 84.98 46.6291C84.9807 47.0186 85.1361 47.3918 85.4119 47.6666L68.7537 64.3287C68.4789 64.6036 68.3245 64.9764 68.3245 65.3651C68.3245 65.7538 68.4789 66.1266 68.7537 66.4015C69.0285 66.6763 69.4012 66.8308 69.7898 66.8308C70.1785 66.8308 70.5512 66.6763 70.826 66.4015L99.2635 37.9573C100.055 37.1637 100.5 36.0884 100.5 34.9674C100.5 33.8463 100.055 32.771 99.2635 31.9774V31.9676ZM72.158 32.3271C72.2941 32.191 72.4021 32.0295 72.4758 31.8516C72.5495 31.6738 72.5874 31.4832 72.5874 31.2907C72.5874 31.0982 72.5495 30.9076 72.4758 30.7298C72.4021 30.552 72.2941 30.3904 72.158 30.2543L70.242 28.3398C70.1069 28.1998 69.9454 28.0881 69.7667 28.0113C69.588 27.9344 69.3958 27.8939 69.2013 27.8921C69.0068 27.8903 68.8139 27.9273 68.6338 28.0009C68.4538 28.0745 68.2902 28.1832 68.1526 28.3207C68.015 28.4582 67.9061 28.6217 67.8324 28.8018C67.7586 28.9818 67.7215 29.1747 67.7231 29.3693C67.7247 29.5638 67.765 29.7561 67.8417 29.9349C67.9184 30.1137 68.0299 30.2754 68.1697 30.4106L70.0857 32.3271C70.2218 32.4632 70.3833 32.5713 70.5611 32.645C70.7389 32.7186 70.9294 32.7566 71.1219 32.7566C71.3143 32.7566 71.5049 32.7186 71.6827 32.645C71.8605 32.5713 72.022 32.4632 72.158 32.3271ZM60.6561 20.8303C60.9312 20.5548 61.0858 20.1813 61.0858 19.7919C61.0858 19.4025 60.9312 19.0291 60.6561 18.7536L58.74 16.8371C58.604 16.701 58.4424 16.5931 58.2647 16.5194C58.0869 16.4458 57.8963 16.4079 57.7039 16.4079C57.5115 16.4079 57.3209 16.4458 57.1432 16.5194C56.9654 16.5931 56.8038 16.701 56.6678 16.8371C56.5317 16.9732 56.4238 17.1348 56.3501 17.3126C56.2765 17.4904 56.2386 17.681 56.2386 17.8735C56.2386 18.066 56.2765 18.2566 56.3501 18.4344C56.4238 18.6122 56.5317 18.7738 56.6678 18.9099L58.5838 20.8264C58.7196 20.9628 58.8809 21.0711 59.0585 21.1451C59.2362 21.2191 59.4267 21.2574 59.6191 21.2578C59.8116 21.2581 60.0022 21.2206 60.1801 21.1472C60.358 21.0739 60.5198 20.9662 60.6561 20.8303ZM66.4022 26.5777C66.5382 26.4418 66.6462 26.2804 66.7198 26.1027C66.7935 25.9251 66.8314 25.7346 66.8314 25.5423C66.8314 25.35 66.7935 25.1595 66.7198 24.9819C66.6462 24.8042 66.5382 24.6428 66.4022 24.5069L64.4861 22.5904C64.2097 22.3237 63.8396 22.1762 63.4556 22.1797C63.0715 22.1832 62.7042 22.3375 62.4327 22.6092C62.1612 22.881 62.0073 23.2486 62.0042 23.6328C62.001 24.0169 62.1489 24.387 62.4158 24.6632L64.3318 26.5777C64.4678 26.715 64.6297 26.8239 64.808 26.8983C64.9864 26.9727 65.1777 27.0109 65.3709 27.0109C65.5641 27.0109 65.7554 26.9727 65.9338 26.8983C66.1121 26.8239 66.274 26.715 66.41 26.5777H66.4022ZM67.4666 61.9375C80.7635 43.0659 57.9646 20.6525 39.3826 32.456C39.0782 32.6736 38.8685 32.9993 38.7966 33.3666C38.7247 33.7338 38.796 34.1146 38.9958 34.4309C39.1957 34.7473 39.5089 34.9751 39.8714 35.0678C40.2339 35.1605 40.618 35.1109 40.9451 34.9293C41.9663 34.2823 43.0507 33.741 44.1814 33.3137L49.0193 36.8301V42.1966L42.9178 46.6508L38.4666 44.6347L36.5896 38.856C36.824 38.5629 37.0643 38.2699 37.3182 37.9944C37.4483 37.8523 37.5492 37.6859 37.615 37.5047C37.6807 37.3234 37.7101 37.1311 37.7014 36.9385C37.6927 36.7459 37.646 36.5569 37.5642 36.3824C37.4823 36.2079 37.3668 36.0513 37.2244 35.9215C37.0819 35.7917 36.9152 35.6913 36.7338 35.626C36.5525 35.5608 36.36 35.532 36.1675 35.5412C35.975 35.5505 35.7863 35.5977 35.612 35.6801C35.4378 35.7625 35.2815 35.8784 35.1521 36.0213C34.6899 36.5293 34.255 37.0574 33.8475 37.6057C28.2928 44.7636 29.5623 56.4988 33.9979 62.0255C42.0701 73.0124 59.408 73.3895 67.4744 61.9434L67.4666 61.9375ZM58.7361 65.8154L59.74 62.7248H62.9783C61.7236 63.9577 60.2942 64.999 58.7361 65.8154ZM66.4529 42.052C67.2416 43.6291 67.7893 45.3156 68.0779 47.0552L65.4471 45.1426L66.4529 42.052ZM68.3045 50.8432C68.158 54.0358 67.1511 57.1294 65.3904 59.7964H59.3494L56.7264 56.7273L59.1033 49.4073L63.5545 47.3892L68.3045 50.8432ZM64.41 38.8618L62.535 44.6366L58.0818 46.6527L51.9647 42.1966V36.8242L56.8006 33.3078C59.7885 34.4424 62.4185 36.356 64.4178 38.8501L64.41 38.8618ZM47.8689 32.3642C49.6171 32.1041 51.3942 32.1041 53.1424 32.3642L50.4998 34.2748L47.8689 32.3642ZM50.4998 44.7617L56.1873 48.8974L54.0154 55.5865H46.9842L44.8123 48.8974L50.4998 44.7617ZM34.5447 42.0442L35.5506 45.1426L32.9217 47.0513C33.2102 45.3107 33.7573 43.623 34.5447 42.0442ZM35.6092 59.7945C33.8485 57.1274 32.8416 54.0338 32.6951 50.8412L37.4432 47.3873L41.9061 49.4053L44.283 56.7254L41.66 59.7945H35.6092ZM38.0213 62.7248H41.2596L42.2635 65.8154C40.7054 64.999 39.2761 63.9577 38.0213 62.7248ZM43.9705 61.5879L46.5936 58.5188H54.4061L57.0311 61.5879L55.2029 67.2025C52.1239 68.0438 48.8757 68.0438 45.7967 67.2025L43.9705 61.5879Z" fill="white"/>
</svg>
