<svg width="101" height="101" viewBox="0 0 101 101" fill="none" xmlns="http://www.w3.org/2000/svg">
<path d="M15.7344 27.2363C16.077 27.236 16.4087 27.1158 16.6719 26.8965V26.8965C16.938 26.6759 17.1179 26.3685 17.1797 26.0284C17.2416 25.6883 17.1815 25.3373 17.01 25.0371C16.8385 24.737 16.5667 24.5069 16.2423 24.3874C15.918 24.2679 15.5619 24.2667 15.2366 24.3839C14.9114 24.5011 14.638 24.7292 14.4644 25.0282C14.2909 25.3272 14.2283 25.6777 14.2878 26.0183C14.3473 26.3588 14.5249 26.6674 14.7895 26.8899C15.0541 27.1123 15.3887 27.2343 15.7344 27.2344V27.2363ZM11.2012 31.002C11.4484 31.1789 11.7448 31.2738 12.0488 31.2734C12.2826 31.2733 12.513 31.2174 12.7209 31.1104C12.9288 31.0034 13.1081 30.8484 13.2441 30.6582C13.2441 30.6582 13.2617 30.6328 13.2637 30.627C13.3726 30.4699 13.4495 30.2929 13.49 30.1061C13.5305 29.9192 13.5338 29.7263 13.4997 29.5382C13.4656 29.3501 13.3948 29.1706 13.2913 29.0099C13.1878 28.8491 13.0536 28.7104 12.8965 28.6016C12.5782 28.3768 12.1836 28.2876 11.7995 28.3537C11.4155 28.4198 11.0734 28.6358 10.8486 28.9541C10.6238 29.2724 10.5347 29.667 10.6008 30.051C10.6669 30.4351 10.8829 30.7771 11.2012 31.002V31.002ZM27.0625 24.918C29.4773 24.918 31.8379 24.2019 33.8457 22.8603C35.8535 21.5186 37.4183 19.6117 38.3423 17.3807C39.2663 15.1497 39.508 12.6948 39.0367 10.3264C38.5655 7.95805 37.4025 5.78262 35.6949 4.07524C33.9872 2.36786 31.8116 1.20523 29.4432 0.73436C27.0747 0.263494 24.6198 0.505551 22.389 1.42992C20.1581 2.35429 18.2515 3.91945 16.9102 5.92746C15.5688 7.93548 14.8531 10.2962 14.8535 12.7109C14.8577 15.9475 16.1453 19.0503 18.4341 21.3387C20.7229 23.6272 23.8259 24.9144 27.0625 24.918V24.918ZM27.0625 3.4336C28.8978 3.4336 30.6918 3.97782 32.2178 4.99744C33.7438 6.01706 34.9331 7.46629 35.6355 9.16186C36.3378 10.8574 36.5215 12.7232 36.1635 14.5232C35.8055 16.3232 34.9217 17.9766 33.624 19.2743C32.3262 20.5721 30.6728 21.4559 28.8728 21.8139C27.0728 22.1719 25.207 21.9882 23.5115 21.2858C21.8159 20.5835 20.3667 19.3942 19.347 17.8682C18.3274 16.3422 17.7832 14.5482 17.7832 12.7129C17.7858 10.2527 18.7643 7.89394 20.5039 6.1543C22.2435 4.41465 24.6023 3.43618 27.0625 3.4336V3.4336ZM10.6562 52.1387C10.8689 52.139 11.079 52.0923 11.2715 52.002C11.447 51.9211 11.6048 51.8063 11.7357 51.6641C11.8666 51.5219 11.968 51.3552 12.0341 51.1736C12.1002 50.992 12.1297 50.7991 12.1208 50.606C12.112 50.413 12.0649 50.2236 11.9824 50.0488L11.9609 50.0039C11.842 49.7726 11.6636 49.5772 11.4442 49.4377C11.2247 49.2981 10.972 49.2195 10.7121 49.21C10.4523 49.2004 10.1945 49.2602 9.96537 49.3832C9.73624 49.5062 9.54398 49.688 9.40836 49.9099C9.27274 50.1319 9.19865 50.3859 9.19368 50.6459C9.18872 50.9059 9.25307 51.1626 9.38012 51.3895C9.50718 51.6164 9.69235 51.8054 9.91663 51.9371C10.1409 52.0687 10.3962 52.1383 10.6562 52.1387V52.1387ZM8.42969 41.4961C8.81665 41.5153 9.19556 41.3811 9.48411 41.1225C9.77265 40.864 9.94751 40.502 9.9707 40.1152C9.99479 39.7267 9.86356 39.3446 9.60588 39.0528C9.3482 38.7611 8.98518 38.5837 8.59668 38.5596C8.20818 38.5355 7.82602 38.6667 7.53428 38.9244C7.24253 39.1821 7.0651 39.5451 7.04102 39.9336C7.04102 39.9336 7.04102 39.9649 7.04102 39.9707C7.0235 40.357 7.15984 40.7344 7.42014 41.0204C7.68044 41.3063 8.04347 41.4774 8.42969 41.4961V41.4961ZM99.0352 94.6543H90.6914C90.8301 93.3398 90.832 57.5117 90.6914 56.207H99.0352C99.4237 56.207 99.7962 56.0527 100.071 55.778C100.346 55.5033 100.5 55.1307 100.5 54.7422C100.5 54.3537 100.346 53.9811 100.071 53.7064C99.7962 53.4317 99.4237 53.2773 99.0352 53.2773H89.6113C89.0087 52.3799 88.1949 51.6442 87.2413 51.1351C86.2877 50.6259 85.2236 50.3589 84.1426 50.3574H76.043C74.9619 50.3587 73.8978 50.6257 72.9442 51.1348C71.9905 51.644 71.1767 52.3798 70.5742 53.2773H60.0273C57.4642 53.2787 54.9604 52.506 52.8438 51.0606L42.5195 44.0586C42.1981 43.8403 41.8031 43.7586 41.4215 43.8314C41.0398 43.9043 40.7027 44.1259 40.4844 44.4473C40.266 44.7687 40.1843 45.1637 40.2572 45.5453C40.3301 45.927 40.5516 46.2641 40.873 46.4824L51.1953 53.4941C53.7963 55.2693 56.8725 56.2182 60.0215 56.2168H69.4883C69.4043 56.8984 69.4453 93.168 69.4453 93.9121C69.4484 95.6604 70.1447 97.3362 71.3815 98.5719C72.6183 99.8076 74.2947 100.502 76.043 100.504H84.1367C85.2178 100.503 86.2819 100.236 87.2355 99.7265C88.1892 99.2173 89.003 98.4816 89.6055 97.584H99.0352C99.4237 97.584 99.7962 97.4297 100.071 97.1549C100.346 96.8802 100.5 96.5076 100.5 96.1191C100.5 95.7306 100.346 95.3581 100.071 95.0833C99.7962 94.8086 99.4237 94.6543 99.0352 94.6543V94.6543ZM87.8047 93.9063C87.8031 94.8786 87.4162 95.8106 86.7287 96.4982C86.0411 97.1857 85.109 97.5727 84.1367 97.5742H76.043C75.0705 97.5732 74.1381 97.1864 73.4505 96.4988C72.7628 95.8111 72.376 94.8787 72.375 93.9063V56.9492C72.376 55.9767 72.7628 55.0444 73.4505 54.3567C74.1381 53.6691 75.0705 53.2823 76.043 53.2813H84.1367C85.109 53.2828 86.0411 53.6697 86.7287 54.3573C87.4162 55.0448 87.8031 55.9769 87.8047 56.9492V93.9063ZM10.3594 45.2305C10.3594 45.2305 10.3594 45.1934 10.3594 45.1816C10.299 44.9124 10.1639 44.6657 9.96955 44.4699C9.77519 44.2742 9.52948 44.1372 9.26072 44.0749C8.99195 44.0127 8.71107 44.0275 8.45039 44.1179C8.18971 44.2082 7.95983 44.3703 7.78723 44.5855C7.61463 44.8007 7.50631 45.0603 7.47475 45.3344C7.44319 45.6085 7.48968 45.8859 7.60885 46.1347C7.72802 46.3835 7.91503 46.5936 8.14836 46.7408C8.38169 46.8881 8.65185 46.9664 8.92773 46.9668C9.01879 46.9661 9.10961 46.9576 9.19922 46.9414C9.57955 46.8676 9.91515 46.6462 10.1326 46.3255C10.35 46.0048 10.4316 45.6111 10.3594 45.2305ZM65.1992 94.6641H35.1777C36.2461 90.5215 33.1992 86.3438 29.0195 86.125C29.8144 84.9886 30.2399 83.6349 30.2383 82.2481V82.1445C30.2373 80.8952 29.8921 79.6702 29.2406 78.6042C28.589 77.5381 27.6564 76.6722 26.5449 76.1016C27.7124 74.8467 28.3613 73.1964 28.3613 71.4824V71.4023C28.359 69.9275 27.8779 68.4933 26.9902 67.3154C26.1026 66.1376 24.8565 65.2798 23.4395 64.8711C24.3521 63.6875 24.8466 62.2348 24.8457 60.7402V60.6602C24.847 59.2773 24.4236 57.9274 23.6328 56.793H30.334C30.4961 59.0078 31.3105 63.0078 34.8691 65.6582C36.9469 67.1896 39.4932 67.9492 42.0703 67.8066C42.4588 67.789 42.8244 67.6178 43.0867 67.3306C43.3489 67.0435 43.4864 66.6639 43.4688 66.2754C43.4511 65.8869 43.2799 65.5213 42.9928 65.259C42.7056 64.9968 42.326 64.8593 41.9375 64.877C40.8066 64.9297 38.6172 64.7949 36.6191 63.3145C32.9668 60.5957 33.2188 55.6973 33.2363 55.4375C33.2501 55.2166 33.2144 54.9954 33.132 54.79C33.0496 54.5846 32.9224 54.4001 32.7598 54.25L25.1094 47.2773C24.4945 46.7136 24.0151 46.018 23.707 45.2427C23.399 44.4675 23.2703 43.6326 23.3306 42.8005C23.3909 41.9685 23.6387 41.1608 24.0553 40.4381C24.4719 39.7153 25.0466 39.0962 25.7363 38.627C26.2718 38.2672 26.9029 38.0762 27.548 38.0786C28.1931 38.081 28.8227 38.2768 29.3555 38.6406L36.6309 43.584C36.79 43.6921 36.9689 43.7678 37.1573 43.8068C37.3457 43.8458 37.54 43.8472 37.7289 43.8111C37.9179 43.7751 38.0979 43.7021 38.2587 43.5964C38.4195 43.4908 38.5579 43.3545 38.666 43.1953C38.7741 43.0362 38.8498 42.8573 38.8888 42.6689C38.9278 42.4805 38.9293 42.2862 38.8932 42.0972C38.8571 41.9083 38.7841 41.7282 38.6785 41.5675C38.5728 41.4067 38.4365 41.2683 38.2773 41.1602L31.002 36.2188C29.9877 35.5251 28.7886 35.1517 27.5599 35.1468C26.3311 35.1419 25.1291 35.5058 24.1094 36.1914C23.0489 36.9071 22.1647 37.854 21.5231 38.9608C20.8815 40.0676 20.4993 41.3055 20.4053 42.5814C20.3113 43.8573 20.5079 45.1379 20.9803 46.3268C21.4528 47.5157 22.1887 48.582 23.1328 49.4453L27.9902 53.8594C27.6758 53.8477 7.89063 53.8594 7.29883 53.8594C5.49581 53.8609 3.7671 54.578 2.49235 55.8531C1.21761 57.1282 0.501034 58.8571 0.5 60.6602L0.5 60.7461C0.502198 62.2207 0.983072 63.6547 1.87031 64.8325C2.75755 66.0104 4.00319 66.8683 5.41992 67.2773C4.50959 68.4598 4.01586 69.9101 4.01562 71.4023V71.4883C4.01782 72.9629 4.4987 74.3969 5.38594 75.5747C6.27317 76.7526 7.51881 77.6105 8.93555 78.0195C8.02522 79.202 7.53148 80.6523 7.53125 82.1445V82.2305C7.53306 83.7057 8.01425 85.1404 8.90234 86.3185C9.79042 87.4965 11.0373 88.354 12.4551 88.7617C11.5377 89.9623 11.0426 91.4324 11.0469 92.9434C11.0469 96.7148 14.0762 99.7793 17.8008 99.7793H28.6387C29.5723 99.7783 30.4954 99.5822 31.3487 99.2035C32.202 98.8247 32.9667 98.2718 33.5938 97.5801H65.1992C65.5877 97.5801 65.9603 97.4258 66.235 97.151C66.5097 96.8763 66.6641 96.5037 66.6641 96.1152C66.6641 95.7267 66.5097 95.3541 66.235 95.0794C65.9603 94.8047 65.5877 94.6504 65.1992 94.6504V94.6641ZM3.42969 60.7422V60.6602C3.43072 59.6348 3.83849 58.6518 4.5635 57.9268C5.28852 57.2018 6.27155 56.794 7.29687 56.793H18.0488C19.0742 56.794 20.0572 57.2018 20.7822 57.9268C21.5072 58.6518 21.915 59.6348 21.916 60.6602V60.7461C21.9145 61.7711 21.5065 62.7536 20.7815 63.4782C20.0566 64.2028 19.0738 64.6103 18.0488 64.6113H7.30664C6.79795 64.6121 6.2941 64.5126 5.82389 64.3185C5.35368 64.1245 4.92633 63.8396 4.56627 63.4803C4.20621 63.1209 3.9205 62.6942 3.72548 62.2243C3.53046 61.7545 3.42994 61.2509 3.42969 60.7422V60.7422ZM6.94531 71.4844V71.4023C6.94635 70.377 7.35411 69.394 8.07913 68.669C8.80414 67.944 9.78718 67.5362 10.8125 67.5352H21.5645C22.5898 67.5362 23.5728 67.944 24.2978 68.669C25.0228 69.394 25.4306 70.377 25.4316 71.4023V71.4883C25.4301 72.5133 25.0221 73.4958 24.2971 74.2204C23.5722 74.945 22.5894 75.3525 21.5645 75.3535H10.8223C9.79592 75.3551 8.81097 74.949 8.08396 74.2245C7.35695 73.5001 6.94738 72.5166 6.94531 71.4902V71.4844ZM10.4609 82.2266V82.1445C10.4625 81.1194 10.8704 80.1366 11.5953 79.4117C12.3202 78.6868 13.303 78.2789 14.3281 78.2773H23.4434C24.4683 78.2789 25.4509 78.6869 26.1755 79.4119C26.9001 80.1368 27.3076 81.1195 27.3086 82.1445V82.2305C27.3076 83.2555 26.9001 84.2382 26.1755 84.9632C25.4509 85.6881 24.4683 86.0961 23.4434 86.0977H14.3281C13.3043 86.0961 12.3228 85.6893 11.5981 84.966C10.8734 84.2428 10.4646 83.2621 10.4609 82.2383V82.2266ZM28.6367 96.8418H17.8008C16.7648 96.8418 15.7712 96.4303 15.0386 95.6977C14.3061 94.9651 13.8945 93.9716 13.8945 92.9356C13.8945 91.8995 14.3061 90.906 15.0386 90.1734C15.7712 89.4408 16.7648 89.0293 17.8008 89.0293H28.6367C29.6727 89.0293 30.6663 89.4408 31.3989 90.1734C32.1314 90.906 32.543 91.8995 32.543 92.9356C32.543 93.9716 32.1314 94.9651 31.3989 95.6977C30.6663 96.4303 29.6727 96.8418 28.6367 96.8418ZM9.09375 36.0645C9.45926 36.1871 9.8584 36.1605 10.2044 35.9904C10.5504 35.8203 10.8152 35.5206 10.9414 35.1563V35.1445C11.0683 34.7773 11.0441 34.3746 10.8742 34.0252C10.7042 33.6758 10.4024 33.4082 10.0352 33.2813C9.66789 33.1543 9.26526 33.1785 8.91582 33.3485C8.56639 33.5184 8.29879 33.8202 8.17187 34.1875V34.2129C8.04868 34.5807 8.07659 34.9823 8.24947 35.3295C8.42234 35.6768 8.72602 35.9411 9.09375 36.0645Z" fill="white"/>
</svg>
