<svg width="86" height="100" viewBox="0 0 86 100" fill="none" xmlns="http://www.w3.org/2000/svg">
<path d="M53.7253 18.2578H47.8421C47.8212 18.2578 47.8007 18.2514 47.7837 18.2395C47.7666 18.2276 47.7537 18.2108 47.7467 18.1914L45.9287 12.6953C45.7276 12.0875 45.3359 11.5578 44.8098 11.1822C44.2838 10.8066 43.6502 10.6043 43 10.6043C42.3498 10.6043 41.7163 10.8066 41.1902 11.1822C40.6641 11.5578 40.2724 12.0875 40.0713 12.6953L38.2533 18.1953C38.2463 18.2147 38.2334 18.2315 38.2163 18.2434C38.1993 18.2553 38.1788 18.2617 38.1579 18.2617H32.2747C31.6264 18.264 30.9954 18.4673 30.4715 18.8427C29.9476 19.2181 29.5576 19.7464 29.3571 20.3524C29.1565 20.9584 29.1556 21.6112 29.3544 22.2177C29.5533 22.8243 29.9418 23.3537 30.4646 23.7305L35.2332 27.1289C35.2504 27.1409 35.2632 27.158 35.2696 27.1777C35.2761 27.1975 35.2759 27.2187 35.269 27.2383L33.451 32.7402C33.2405 33.348 33.235 34.0062 33.435 34.6172C33.6351 35.2283 34.0301 35.7598 34.5616 36.1328C35.0852 36.5146 35.7198 36.7208 36.3717 36.7208C37.0236 36.7208 37.6582 36.5146 38.1818 36.1328L42.9503 32.7324C42.9672 32.7199 42.9878 32.7131 43.0089 32.7131C43.0301 32.7131 43.0507 32.7199 43.0676 32.7324L47.8361 36.1309C48.3623 36.5065 48.9959 36.7088 49.6462 36.7087C50.2965 36.7086 50.9301 36.5062 51.4562 36.1304C51.9822 35.7547 52.3738 35.2248 52.5748 34.6169C52.7757 34.0089 52.7758 33.3541 52.5749 32.7461L50.7569 27.248C50.7507 27.2279 50.751 27.2064 50.7577 27.1865C50.7645 27.1665 50.7774 27.1492 50.7946 27.1367L55.5532 23.7383C56.0761 23.3615 56.4646 22.8321 56.6635 22.2255C56.8623 21.619 56.8614 20.9662 56.6608 20.3602C56.4603 19.7542 56.0702 19.2259 55.5464 18.8505C55.0225 18.4751 54.3915 18.2718 53.7432 18.2695L53.7253 18.2578ZM53.7829 21.3652L49.0243 24.7637C48.4971 25.1386 48.1045 25.6684 47.9031 26.2766C47.7017 26.8849 47.7019 27.5403 47.9037 28.1484L49.7217 33.6484C49.7356 33.6914 49.7455 33.7168 49.6859 33.7578C49.6785 33.7658 49.6694 33.7722 49.6593 33.7766C49.6492 33.7809 49.6383 33.7832 49.6273 33.7832C49.6163 33.7832 49.6054 33.7809 49.5953 33.7766C49.5852 33.7722 49.5761 33.7658 49.5687 33.7578L44.8001 30.3594C44.2745 29.9825 43.6407 29.7794 42.9901 29.7794C42.3395 29.7794 41.7057 29.9825 41.18 30.3594L36.4114 33.7578C36.3757 33.7832 36.3538 33.7988 36.2962 33.7578C36.2386 33.7168 36.2445 33.6914 36.2584 33.6484L38.0765 28.1484C38.2787 27.5405 38.2794 26.8852 38.0783 26.2768C37.8773 25.6685 37.4849 25.1387 36.9578 24.7637L32.1992 21.3652C32.1615 21.3379 32.1396 21.3223 32.1634 21.2559C32.1873 21.1895 32.2111 21.1875 32.2568 21.1875H38.14C38.7907 21.189 39.425 20.9871 39.9515 20.6111C40.4779 20.2352 40.8691 19.7045 41.0687 19.0957L42.8867 13.5957C42.9007 13.5547 42.9086 13.5293 42.9821 13.5293C43.0556 13.5293 43.0616 13.5547 43.0755 13.5957L44.8935 19.0957C45.0934 19.7043 45.4847 20.2348 46.0111 20.6108C46.5374 20.9867 47.1716 21.1887 47.8222 21.1875H53.7054C53.7511 21.1875 53.7789 21.1875 53.8008 21.2559C53.8227 21.3242 53.8187 21.3379 53.7829 21.3652ZM80.8048 5.44531H71.5359V3.41797C71.5348 2.51178 71.1681 1.64301 70.5163 1.00224C69.8644 0.361472 68.9807 0.00103387 68.0588 0L17.9412 0C17.0194 0.00103387 16.1356 0.361472 15.4837 1.00224C14.8319 1.64301 14.4652 2.51178 14.4641 3.41797V5.44531H5.18928C4.00394 5.44635 2.86746 5.90967 2.0293 6.73358C1.19114 7.55749 0.719802 8.67466 0.71875 9.83984L0.71875 18.8613C0.718871 23.8335 2.15333 28.7037 4.85567 32.9068C7.55801 37.1099 11.4174 40.4735 15.9861 42.6074L29.3182 48.8281C29.9037 49.5039 30.5044 50.168 31.1203 50.8203C30.6486 51.1335 30.2623 51.5556 29.9952 52.0497C29.7281 52.5438 29.5884 53.0948 29.5884 53.6543V58.5371C29.59 59.4431 29.9568 60.3116 30.6086 60.9523C31.2603 61.5929 32.1438 61.9535 33.0655 61.9551H35.2511V69.5312H26.012C24.0365 69.5333 22.1426 70.3056 20.7458 71.6787C19.3489 73.0519 18.5632 74.9136 18.5611 76.8555V87.6953H16.0775C15.1556 87.6964 14.2718 88.0568 13.62 88.6976C12.9681 89.3383 12.6015 90.2071 12.6004 91.1133V96.582C12.6015 97.4882 12.9681 98.357 13.62 98.9978C14.2718 99.6385 15.1556 99.999 16.0775 100H69.9225C70.8444 99.999 71.7282 99.6385 72.38 98.9978C73.0319 98.357 73.3985 97.4882 73.3996 96.582V91.1133C73.3985 90.2071 73.0319 89.3383 72.38 88.6976C71.7282 88.0568 70.8444 87.6964 69.9225 87.6953H21.5415V76.8555C21.5425 75.6903 22.0139 74.5731 22.852 73.7492C23.6902 72.9253 24.8267 72.462 26.012 72.4609H59.988C61.1733 72.462 62.3098 72.9253 63.148 73.7492C63.9861 74.5731 64.4575 75.6903 64.4585 76.8555V83.3008C64.4585 83.6893 64.6155 84.0619 64.895 84.3366C65.1745 84.6113 65.5535 84.7656 65.9487 84.7656C66.3439 84.7656 66.723 84.6113 67.0024 84.3366C67.2819 84.0619 67.4389 83.6893 67.4389 83.3008V76.8555C67.4368 74.9136 66.6511 73.0519 65.2542 71.6787C63.8574 70.3056 61.9635 69.5333 59.988 69.5312H50.7489V61.959H52.9345C53.8564 61.958 54.7402 61.5975 55.392 60.9567C56.0439 60.316 56.4105 59.4472 56.4116 58.541V53.6582C56.4114 53.099 56.2716 52.5483 56.0046 52.0546C55.7375 51.5608 55.3512 51.139 54.8797 50.8262C55.4956 50.1751 56.0963 49.5104 56.6818 48.832L70.0139 42.6055C74.5827 40.4723 78.4423 37.1091 81.1447 32.9062C83.8471 28.7034 85.2815 23.8333 85.2812 18.8613V9.83984C85.2802 8.67466 84.8089 7.55749 83.9707 6.73358C83.1325 5.90967 81.9961 5.44635 80.8107 5.44531H80.8048ZM69.9225 90.625C70.0542 90.625 70.1806 90.6764 70.2738 90.768C70.3669 90.8596 70.4192 90.9838 70.4192 91.1133V96.582C70.4192 96.7115 70.3669 96.8357 70.2738 96.9273C70.1806 97.0189 70.0542 97.0703 69.9225 97.0703H16.0775C15.9458 97.0703 15.8194 97.0189 15.7263 96.9273C15.6331 96.8357 15.5808 96.7115 15.5808 96.582V91.1133C15.5808 90.9838 15.6331 90.8596 15.7263 90.768C15.8194 90.6764 15.9458 90.625 16.0775 90.625H69.9225ZM71.3133 14.2344H76.3402V18.8613C76.3307 22.1691 75.372 25.4071 73.5742 28.2032C71.7764 30.9994 69.2125 33.2401 66.1772 34.668L65.7679 34.8633C66.0938 34.168 66.4117 33.4707 66.7117 32.7637C69.226 26.863 70.7795 20.61 71.3153 14.2344H71.3133ZM17.2696 39.959C13.2093 38.0641 9.77901 35.076 7.37695 31.3415C4.97488 27.6071 3.69959 23.2796 3.6991 18.8613V9.83984C3.6991 9.45134 3.8561 9.07875 4.13556 8.80404C4.41503 8.52933 4.79406 8.375 5.18928 8.375H14.4641C14.4641 9.33984 14.4641 10.3457 14.5078 11.3047H8.16963C7.77441 11.3047 7.39538 11.459 7.11591 11.7337C6.83645 12.0084 6.67945 12.381 6.67945 12.7695V18.8613C6.69077 22.0445 7.45381 25.1816 8.90848 28.0256C10.3631 30.8695 12.4697 33.3426 15.0622 35.25C15.3784 35.4831 15.7758 35.5832 16.167 35.5282C16.5583 35.4733 16.9113 35.2678 17.1484 34.957C17.3856 34.6462 17.4874 34.2556 17.4315 33.871C17.3756 33.4864 17.1666 33.1394 16.8504 32.9062C14.627 31.2727 12.8202 29.1536 11.5723 26.7163C10.3245 24.2789 9.66974 21.5899 9.6598 18.8613V14.2344H14.6847C15.5866 24.8107 19.2635 34.9763 25.3563 43.7383L17.2696 39.959ZM47.7686 69.5312H38.2314V61.959H47.7686V69.5312ZM53.4312 58.541C53.4312 58.6705 53.3789 58.7947 53.2857 58.8863C53.1926 58.9779 53.0662 59.0293 52.9345 59.0293H33.0655C32.9338 59.0293 32.8074 58.9779 32.7143 58.8863C32.6211 58.7947 32.5688 58.6705 32.5688 58.541V53.6582C32.5693 53.5289 32.6218 53.405 32.7148 53.3135C32.8079 53.222 32.9339 53.1704 33.0655 53.1699H52.9345C53.0661 53.1704 53.1921 53.222 53.2852 53.3135C53.3782 53.405 53.4307 53.5289 53.4312 53.6582V58.541ZM51.3192 50.2402H34.6808C29.2798 44.9002 24.986 38.5792 22.0382 31.6289C18.9982 24.4989 17.4365 16.8442 17.4445 9.11328V3.41797C17.4445 3.28847 17.4968 3.16427 17.59 3.0727C17.6831 2.98113 17.8095 2.92969 17.9412 2.92969H68.0588C68.1905 2.92969 68.3169 2.98113 68.41 3.0727C68.5032 3.16427 68.5555 3.28847 68.5555 3.41797V9.11328C68.5635 16.8442 67.0018 24.4989 63.9618 31.6289C61.0125 38.5785 56.7189 44.8992 51.3192 50.2402ZM82.3009 18.8613C82.2993 23.2784 81.024 27.6045 78.6227 31.338C76.2215 35.0714 72.7929 38.0593 68.7343 39.9551L60.6457 43.7324C61.6802 42.2441 62.6478 40.7109 63.5485 39.1328L67.4568 37.3047C70.9986 35.6384 73.9906 33.0239 76.0891 29.7615C78.1877 26.4992 79.3077 22.7212 79.3205 18.8613V12.7695C79.3205 12.381 79.1635 12.0084 78.8841 11.7337C78.6046 11.459 78.2256 11.3047 77.8304 11.3047H71.4922C71.518 10.5762 71.5359 9.8457 71.5359 9.11328V8.375H80.8107C81.2059 8.375 81.585 8.52933 81.8644 8.80404C82.1439 9.07875 82.3009 9.45134 82.3009 9.83984V18.8613Z" fill="white"/>
</svg>
